<svg xmlns="http://www.w3.org/2000/svg" viewBox="0 0 256 256" width="64" height="64">
    <path
        fill="#FFFFFF"
        d="M128 78a50 50 0 1 0 50 50 50.056 50.056 0 0 0-50-50Zm0 84a34 34 0 1 1 34-34 34.039 34.039 0 0 1-34 34Zm44-136H84a60.068 60.068 0 0 0-60 60v88a60.068 60.068 0 0 0 60 60h88a60.068 60.068 0 0 0 60-60V86a60.068 60.068 0 0 0-60-60Zm44 148a44.05 44.05 0 0 1-44 44H84a44.05 44.05 0 0 1-44-44V86a44.05 44.05 0 0 1 44-44h88a44.05 44.05 0 0 1 44 44ZM200 76a12 12 0 1 1-12-12 12.013 12.013 0 0 1 12 12Z" />
</svg>